<svg xmlns="http://www.w3.org/2000/svg" width="1500" height="500" viewBox="0 0 1500 500">
  <defs>
    <radialGradient id="bg" cx="50%" cy="50%" r="50%">
      <stop offset="0%" stop-color="#0a0628"/>
      <stop offset="100%" stop-color="#030014"/>
    </radialGradient>
    <radialGradient id="glow" cx="50%" cy="50%" r="40%">
      <stop offset="0%" stop-color="#c9a84c" stop-opacity=".12"/>
      <stop offset="60%" stop-color="#c9a84c" stop-opacity=".03"/>
      <stop offset="100%" stop-color="#c9a84c" stop-opacity="0"/>
    </radialGradient>
    <radialGradient id="glowL" cx="50%" cy="50%" r="50%">
      <stop offset="0%" stop-color="#c9a84c" stop-opacity=".06"/>
      <stop offset="100%" stop-color="#c9a84c" stop-opacity="0"/>
    </radialGradient>
    <radialGradient id="glowR" cx="50%" cy="50%" r="50%">
      <stop offset="0%" stop-color="#c9a84c" stop-opacity=".06"/>
      <stop offset="100%" stop-color="#c9a84c" stop-opacity="0"/>
    </radialGradient>
  </defs>

  <!-- Background -->
  <rect width="1500" height="500" fill="url(#bg)"/>

  <!-- Ambient glows -->
  <circle cx="750" cy="250" r="280" fill="url(#glow)"/>
  <circle cx="250" cy="250" r="220" fill="url(#glowL)"/>
  <circle cx="1250" cy="250" r="220" fill="url(#glowR)"/>

  <!-- ============ LEFT FLOWER (x=250, y=250) ============ -->
  <!-- Outer boundary -->
  <circle cx="250" cy="250" r="200" fill="none" stroke="#c9a84c" stroke-width="1" opacity=".15"/>

  <!-- Center -->
  <circle cx="250" cy="250" r="66.7" fill="none" stroke="#c9a84c" stroke-width=".9" opacity=".25"/>
  <!-- Ring 2 -->
  <circle cx="250" cy="183.3" r="66.7" fill="none" stroke="#c9a84c" stroke-width=".8" opacity=".2"/>
  <circle cx="307.8" cy="216.65" r="66.7" fill="none" stroke="#c9a84c" stroke-width=".8" opacity=".2"/>
  <circle cx="307.8" cy="283.35" r="66.7" fill="none" stroke="#c9a84c" stroke-width=".8" opacity=".2"/>
  <circle cx="250" cy="316.7" r="66.7" fill="none" stroke="#c9a84c" stroke-width=".8" opacity=".2"/>
  <circle cx="192.2" cy="283.35" r="66.7" fill="none" stroke="#c9a84c" stroke-width=".8" opacity=".2"/>
  <circle cx="192.2" cy="216.65" r="66.7" fill="none" stroke="#c9a84c" stroke-width=".8" opacity=".2"/>
  <!-- Ring 3 -->
  <circle cx="250" cy="116.6" r="66.7" fill="none" stroke="#c9a84c" stroke-width=".6" opacity=".12"/>
  <circle cx="307.8" cy="149.95" r="66.7" fill="none" stroke="#c9a84c" stroke-width=".6" opacity=".12"/>
  <circle cx="365.6" cy="216.65" r="66.7" fill="none" stroke="#c9a84c" stroke-width=".6" opacity=".12"/>
  <circle cx="365.6" cy="250" r="66.7" fill="none" stroke="#c9a84c" stroke-width=".6" opacity=".12"/>
  <circle cx="365.6" cy="283.35" r="66.7" fill="none" stroke="#c9a84c" stroke-width=".6" opacity=".12"/>
  <circle cx="307.8" cy="350.05" r="66.7" fill="none" stroke="#c9a84c" stroke-width=".6" opacity=".12"/>
  <circle cx="250" cy="383.4" r="66.7" fill="none" stroke="#c9a84c" stroke-width=".6" opacity=".12"/>
  <circle cx="192.2" cy="350.05" r="66.7" fill="none" stroke="#c9a84c" stroke-width=".6" opacity=".12"/>
  <circle cx="134.4" cy="283.35" r="66.7" fill="none" stroke="#c9a84c" stroke-width=".6" opacity=".12"/>
  <circle cx="134.4" cy="250" r="66.7" fill="none" stroke="#c9a84c" stroke-width=".6" opacity=".12"/>
  <circle cx="134.4" cy="216.65" r="66.7" fill="none" stroke="#c9a84c" stroke-width=".6" opacity=".12"/>
  <circle cx="192.2" cy="149.95" r="66.7" fill="none" stroke="#c9a84c" stroke-width=".6" opacity=".12"/>
  <!-- Seed -->
  <circle cx="250" cy="250" r="3" fill="#c9a84c" opacity=".4"/>

  <!-- ============ CENTER FLOWER (x=750, y=250) — HERO ============ -->
  <!-- Outer boundary -->
  <circle cx="750" cy="250" r="200" fill="none" stroke="#c9a84c" stroke-width="1.5" opacity=".3"/>
  <circle cx="750" cy="250" r="202" fill="none" stroke="#c9a84c" stroke-width=".5" opacity=".15"/>

  <!-- Center -->
  <circle cx="750" cy="250" r="66.7" fill="none" stroke="#c9a84c" stroke-width="1.2" opacity=".6"/>
  <!-- Ring 2 -->
  <circle cx="750" cy="183.3" r="66.7" fill="none" stroke="#c9a84c" stroke-width="1.1" opacity=".5"/>
  <circle cx="807.8" cy="216.65" r="66.7" fill="none" stroke="#c9a84c" stroke-width="1.1" opacity=".5"/>
  <circle cx="807.8" cy="283.35" r="66.7" fill="none" stroke="#c9a84c" stroke-width="1.1" opacity=".5"/>
  <circle cx="750" cy="316.7" r="66.7" fill="none" stroke="#c9a84c" stroke-width="1.1" opacity=".5"/>
  <circle cx="692.2" cy="283.35" r="66.7" fill="none" stroke="#c9a84c" stroke-width="1.1" opacity=".5"/>
  <circle cx="692.2" cy="216.65" r="66.7" fill="none" stroke="#c9a84c" stroke-width="1.1" opacity=".5"/>
  <!-- Ring 3 -->
  <circle cx="750" cy="116.6" r="66.7" fill="none" stroke="#c9a84c" stroke-width=".9" opacity=".3"/>
  <circle cx="807.8" cy="149.95" r="66.7" fill="none" stroke="#c9a84c" stroke-width=".9" opacity=".3"/>
  <circle cx="865.6" cy="216.65" r="66.7" fill="none" stroke="#c9a84c" stroke-width=".9" opacity=".3"/>
  <circle cx="865.6" cy="250" r="66.7" fill="none" stroke="#c9a84c" stroke-width=".9" opacity=".3"/>
  <circle cx="865.6" cy="283.35" r="66.7" fill="none" stroke="#c9a84c" stroke-width=".9" opacity=".3"/>
  <circle cx="807.8" cy="350.05" r="66.7" fill="none" stroke="#c9a84c" stroke-width=".9" opacity=".3"/>
  <circle cx="750" cy="383.4" r="66.7" fill="none" stroke="#c9a84c" stroke-width=".9" opacity=".3"/>
  <circle cx="692.2" cy="350.05" r="66.7" fill="none" stroke="#c9a84c" stroke-width=".9" opacity=".3"/>
  <circle cx="634.4" cy="283.35" r="66.7" fill="none" stroke="#c9a84c" stroke-width=".9" opacity=".3"/>
  <circle cx="634.4" cy="250" r="66.7" fill="none" stroke="#c9a84c" stroke-width=".9" opacity=".3"/>
  <circle cx="634.4" cy="216.65" r="66.7" fill="none" stroke="#c9a84c" stroke-width=".9" opacity=".3"/>
  <circle cx="692.2" cy="149.95" r="66.7" fill="none" stroke="#c9a84c" stroke-width=".9" opacity=".3"/>
  <!-- Seed -->
  <circle cx="750" cy="250" r="4" fill="#c9a84c" opacity=".8"/>
  <circle cx="750" cy="250" r="10" fill="none" stroke="#c9a84c" stroke-width=".8" opacity=".4"/>
  <circle cx="750" cy="250" r="1.5" fill="#ede0b8"/>

  <!-- ============ RIGHT FLOWER (x=1250, y=250) ============ -->
  <!-- Outer boundary -->
  <circle cx="1250" cy="250" r="200" fill="none" stroke="#c9a84c" stroke-width="1" opacity=".15"/>

  <!-- Center -->
  <circle cx="1250" cy="250" r="66.7" fill="none" stroke="#c9a84c" stroke-width=".9" opacity=".25"/>
  <!-- Ring 2 -->
  <circle cx="1250" cy="183.3" r="66.7" fill="none" stroke="#c9a84c" stroke-width=".8" opacity=".2"/>
  <circle cx="1307.8" cy="216.65" r="66.7" fill="none" stroke="#c9a84c" stroke-width=".8" opacity=".2"/>
  <circle cx="1307.8" cy="283.35" r="66.7" fill="none" stroke="#c9a84c" stroke-width=".8" opacity=".2"/>
  <circle cx="1250" cy="316.7" r="66.7" fill="none" stroke="#c9a84c" stroke-width=".8" opacity=".2"/>
  <circle cx="1192.2" cy="283.35" r="66.7" fill="none" stroke="#c9a84c" stroke-width=".8" opacity=".2"/>
  <circle cx="1192.2" cy="216.65" r="66.7" fill="none" stroke="#c9a84c" stroke-width=".8" opacity=".2"/>
  <!-- Ring 3 -->
  <circle cx="1250" cy="116.6" r="66.7" fill="none" stroke="#c9a84c" stroke-width=".6" opacity=".12"/>
  <circle cx="1307.8" cy="149.95" r="66.7" fill="none" stroke="#c9a84c" stroke-width=".6" opacity=".12"/>
  <circle cx="1365.6" cy="216.65" r="66.7" fill="none" stroke="#c9a84c" stroke-width=".6" opacity=".12"/>
  <circle cx="1365.6" cy="250" r="66.7" fill="none" stroke="#c9a84c" stroke-width=".6" opacity=".12"/>
  <circle cx="1365.6" cy="283.35" r="66.7" fill="none" stroke="#c9a84c" stroke-width=".6" opacity=".12"/>
  <circle cx="1307.8" cy="350.05" r="66.7" fill="none" stroke="#c9a84c" stroke-width=".6" opacity=".12"/>
  <circle cx="1250" cy="383.4" r="66.7" fill="none" stroke="#c9a84c" stroke-width=".6" opacity=".12"/>
  <circle cx="1192.2" cy="350.05" r="66.7" fill="none" stroke="#c9a84c" stroke-width=".6" opacity=".12"/>
  <circle cx="1134.4" cy="283.35" r="66.7" fill="none" stroke="#c9a84c" stroke-width=".6" opacity=".12"/>
  <circle cx="1134.4" cy="250" r="66.7" fill="none" stroke="#c9a84c" stroke-width=".6" opacity=".12"/>
  <circle cx="1134.4" cy="216.65" r="66.7" fill="none" stroke="#c9a84c" stroke-width=".6" opacity=".12"/>
  <circle cx="1192.2" cy="149.95" r="66.7" fill="none" stroke="#c9a84c" stroke-width=".6" opacity=".12"/>
  <!-- Seed -->
  <circle cx="1250" cy="250" r="3" fill="#c9a84c" opacity=".4"/>

  <!-- Connecting lines between flowers -->
  <line x1="450" y1="250" x2="550" y2="250" stroke="#c9a84c" stroke-width=".6" opacity=".1"/>
  <line x1="950" y1="250" x2="1050" y2="250" stroke="#c9a84c" stroke-width=".6" opacity=".1"/>
</svg>
